<svg id="SvgjsSvg1001" width="288" height="288" xmlns="http://www.w3.org/2000/svg" version="1.1" xmlns:xlink="http://www.w3.org/1999/xlink" xmlns:svgjs="http://svgjs.com/svgjs"><defs id="SvgjsDefs1002"></defs><g id="SvgjsG1008"><svg xmlns="http://www.w3.org/2000/svg" viewBox="0 0 48 48" width="288" height="288"><path fill="#a585d6" d="M27 12a1 1 0 0 1-1-1V5h-4v6a1 1 0 0 1-2 0V4a1 1 0 0 1 1-1h6a1 1 0 0 1 1 1v7a1 1 0 0 1-1 1Z" class="colorffb39f svgShape"></path><path fill="#a86b4c" d="M35 14V4a1 1 0 0 0-1-1H14a1 1 0 0 0-1 1v10a.997.997 0 0 0 .393.794l7.053 5.396A.982.982 0 0 0 20 21v2.764a11 11 0 1 0 8 0V21a.985.985 0 0 0-.353-.748l6.97-5.465A1 1 0 0 0 35 14Zm-2 20a9 9 0 1 1-9-9 9.01 9.01 0 0 1 9 9Zm-9-11a10.987 10.987 0 0 0-2 .191V22h4v1.191A10.987 10.987 0 0 0 24 23Zm9-9.486L24.727 20H23.49L15 13.506V5h18Z" class="colorff926c svgShape"></path><path fill="#a585d6" d="M26.903 38.996a.998.998 0 0 1-.465-.115L24 37.6l-2.438 1.281a1 1 0 0 1-1.451-1.053l.466-2.715-1.972-1.923a1 1 0 0 1 .554-1.705l2.725-.397 1.219-2.47a1.041 1.041 0 0 1 1.794 0l1.219 2.47 2.725.397a1 1 0 0 1 .554 1.705l-1.972 1.923.466 2.715a1 1 0 0 1-.986 1.169ZM24 35.47a.992.992 0 0 1 .465.115l1.11.583-.212-1.236a1 1 0 0 1 .288-.885l.897-.875-1.24-.18a1 1 0 0 1-.753-.547L24 31.32l-.555 1.124a1 1 0 0 1-.753.547l-1.24.18.897.876a1 1 0 0 1 .288.884l-.212 1.237 1.11-.583A.992.992 0 0 1 24 35.47Z" class="colorffb39f svgShape"></path></svg></g></svg>